{"accessors" : [{"bufferView" : 0, "byteOffset" : 0, "componentType" : 5123, "count" : 71304, "type" : "SCALAR", "max" : [55221], "min" : [0]}, {"bufferView" : 1, "byteOffset" : 0, "componentType" : 5126, "count" : 55222, "type" : "VEC3", "max" : [1, 3.576608896255493, 1.4005470275878906], "min" : [-1, -1.033821940422058, -1.6344460248947144], "name" : "POSITION"}], "asset" : {"generator" : "Aspose.3D 22.7", "version" : "2.0"}, "buffers" : [{"uri" : "data:application/octet-stream;base64,", "byteLength" : 998264}], "bufferViews" : [{"buffer" : 0, "byteOffset" : 0, "byteLength" : 142608, "target" : 34963}, {"buffer" : 0, "byteOffset" : 142612, "byteLength" : 855648, "byteStride" : 12, "target" : 34962}], "meshes" : [{"primitives" : [{"attributes" : {"POSITION" : 1}, "indices" : 0, "mode" : 4}], "name" : ""}], "nodes" : [{"mesh" : 0, "name" : ""}], "scene" : 0, "scenes" : [{"nodes" : [0]}]}